<?xml version="1.0" encoding="utf-8"?>
<!DOCTYPE svg PUBLIC "-//W3C//DTD SVG 1.1//EN" "http://www.w3.org/Graphics/SVG/1.1/DTD/svg11.dtd">
<!-- exported from Silhouette Studio® Business Edition V4.4.554ssbe -->
<svg version="1.1" xmlns="http://www.w3.org/2000/svg" xmlns:xlink="http://www.w3.org/1999/xlink" width="304.8mm" height="304.8mm" viewBox="0 0 304.8 304.8">
<defs>
<path id="path_d26a8e8f6c8c6c20a5432bb4a2421844" d="M 187.5375 146.1559 L 182.1083 148.2741 C 176.5128 150.4572 174.9939 142.9549 174.9667 142.8802 C 171.7779 143.491 174.109 142.5591 173.1204 147.5678 C 172.7382 149.5041 171.0445 151.3315 168.6252 151.4214 L 157.3797 151.8391 C 156.9625 151.8546 156.5599 151.8172 156.1768 151.7339 L 155.6797 151.593 L 155.5123 152.0279 C 155.0841 152.9933 154.1542 154.2462 152.1699 154.7562 C 152.1089 154.7718 145.3127 156.2484 145.2507 156.2595 C 143.5175 156.5681 142.7337 156.1582 141.8206 155.7055 C 140.8586 156.9282 140.916 157.5091 132.7511 159.2108 C 131.1951 159.5351 128.625 159.2942 127.3416 156.7075 L 124.6865 151.3563 L 122.5996 158.7919 C 121.91 161.2487 119.7753 161.9962 119.0293 162.1583 L 107.088 164.7526 C 106.6521 164.8474 105.3754 165.06 103.9747 164.3702 L 94.20305 159.5579 C 89.38999 157.1877 92.64312 151.2372 93.2977 149.2803 C 89.71854 147.0871 90.71773 143.8319 91.3471 142.7202 L 98.89166 129.3922 C 99.05543 129.103 99.45542 128.3821 100.4446 127.7415 C 101.1325 127.296 101.6756 127.1746 102.0209 127.0856 C 103.3437 126.7448 104.7519 126.4054 106.246 126.0775 L 106.261 126.0744 L 94.25699 119.3734 C 94.13118 119.3031 93.78104 119.0994 93.38383 118.7391 L 93.14891 118.5002 L 95.82394 125.6196 C 96.8481 128.3454 95.22456 131.3234 92.3791 131.9416 L 79.06158 134.8351 C 76.34716 135.4249 73.60467 133.5506 73.31543 130.661 L 72.02286 117.7482 C 69.15038 118.2201 63.44696 120.2242 62.05026 114.8106 C 62.02838 114.7258 60.218 106.6436 59.95722 105.1768 C 59.2126 100.9886 62.85041 99.66474 63.67892 99.49995 L 91.27473 94.01076 C 93.0625 93.65515 94.97999 94.39096 96.07124 95.90523 L 96.2005 96.10524 L 99.98846 92.3654 C 100.9819 91.38454 102.0147 91.17509 102.4771 91.07211 C 102.567 91.0521 111.8934 89.32003 112.6682 89.2085 C 113.1046 89.14567 114.8538 88.84654 116.514 90.18752 L 117.5506 91.02471 L 117.6173 90.53801 C 118.162 87.91968 120.7638 87.0871 121.3408 86.97232 L 148.9366 81.48315 C 151.5238 80.96853 153.9659 82.61993 154.5134 85.13966 L 156.9377 96.29871 C 157.327 98.09058 156.6652 99.91171 155.2459 101.0371 C 153.7506 102.2229 152.5246 102.0614 149.4011 102.222 L 153.4854 113.0921 C 154.1043 114.7394 153.7521 116.5474 152.6834 117.8278 L 152.6215 117.8943 L 157.615 117.8884 C 159.1568 117.9455 160.2588 118.5097 161.01 119.2949 L 161.3407 119.6855 L 162.1084 117.3889 C 162.495 116.2321 163.3487 115.0356 165.1555 114.3717 C 165.2193 114.3482 172.3685 112.0299 172.4339 112.0114 C 174.2079 111.5092 176.3196 111.8331 177.707 113.681 L 181.2138 118.352 L 180.6368 114.8708 C 180.3509 113.1456 181.1586 110.132 184.3199 109.4451 L 199.386 106.1719 C 200.869 105.8497 201.9265 106.3165 202.1974 106.4155 C 202.2653 106.4402 209.1632 109.2392 209.7224 109.4936 C 210.116 109.6727 211.9217 110.4341 212.519 112.6686 L 215.4319 123.5652 C 215.8327 125.0647 215.4663 126.3367 214.7911 127.4366 C 214.09 128.5786 209.6085 135.2049 209.5593 135.2727 C 208.3493 136.9422 207.7908 136.955 203.0923 138.2919 C 204.1456 143.1407 201.1074 144.4549 199.6436 144.8319 C 199.4909 144.8712 191.0536 146.7012 190.976 146.715 C 189.7091 146.9407 188.6384 146.7416 187.7768 146.2962 L 187.5375 146.1559 Z M 118.4448 124.3451 L 119.3437 124.0519 C 121.7838 123.2776 125.7043 122.0737 126.2605 121.9237 C 130.9096 120.6696 131.7627 123.9945 134.5772 129.7275 C 137.2987 125.4951 140.3906 126.6455 142.1152 127.9072 C 142.6151 125.1029 142.8379 122.6496 143.5448 120.8732 L 143.5692 120.8197 L 136.7234 122.307 C 133.9473 122.9102 131.2598 120.96 130.9769 118.1333 L 129.6843 105.2206 L 128.7219 105.4067 L 129.158 115.7903 C 129.2359 117.6433 128.2293 119.3872 126.5545 120.2359 L 118.4448 124.3451 Z M 115.2416 126.2435 L 115.5637 125.8749 L 115.7395 125.716 L 115.0109 126.0852 L 115.2416 126.2435 Z" fill-rule="evenodd" fill="#FEFF77" fill-opacity="1" stroke="#264DF7" stroke-opacity="1" stroke-width="1.322917" stroke-linecap="round" stroke-linejoin="round"/>
<path id="path_67d4977deb6d0a383646bc036ffce39c" d="M 64.60717 104.1665 L 92.20298 98.67731 L 94.6274 109.8363 L 84.99602 110.3316 L 91.36912 127.2934 L 78.05161 130.1867 L 76.25414 112.2309 L 66.70023 113.8003 L 64.60717 104.1665 L 64.60717 104.1665 Z" fill-rule="evenodd" fill="#D084FF" fill-opacity="1" stroke="none" stroke-opacity="1" stroke-width="0.1" stroke-linecap="round" stroke-linejoin="round"/>
<path id="path_3e3a7a84135ea106673aff73c16d9e9d" d="M 113.5241 93.8893 L 123.824 102.2084 L 124.4029 115.9899 L 110.5413 123.0138 L 96.57642 115.2183 L 95.79518 103.1949 L 103.333 95.75288 L 113.5241 93.8893 L 113.5241 93.8893 Z M 107.6367 104.9832 L 106.6609 109.6361 L 110.4114 111.1198 L 113.5962 109.1033 L 112.513 105.0145 L 107.6367 104.9832 L 107.6367 104.9832 Z" fill-rule="evenodd" fill="#D084FF" fill-opacity="1" stroke="none" stroke-opacity="1" stroke-width="0.1" stroke-linecap="round" stroke-linejoin="round"/>
<path id="path_57f8c2a69336f098a7413e91c10d185a" d="M 122.2691 91.6388 L 149.8648 86.14958 L 152.2892 97.30857 L 142.6579 97.8039 L 149.031 114.7656 L 135.7134 117.659 L 133.916 99.70317 L 124.3621 101.2726 L 122.2691 91.6388 L 122.2691 91.6388 Z" fill-rule="evenodd" fill="#D084FF" fill-opacity="1" stroke="none" stroke-opacity="1" stroke-width="0.1" stroke-linecap="round" stroke-linejoin="round"/>
<path id="path_42708feb1939656e75ceb2be73394dbe" d="M 120.1909 135.4101 L 116.6775 142.3685 L 110.2762 139.98 L 109.2507 142.073 L 120.895 147.2575 L 118.0186 157.5061 L 106.0773 160.1005 L 96.30564 155.2883 L 98.59646 148.4397 L 106.6572 150.9353 L 107.3722 149.0267 L 95.48655 145.0634 L 103.0312 131.7356 L 111.9964 129.7877 L 120.1909 135.4101 L 120.1909 135.4101 Z" fill-rule="evenodd" fill="#D084FF" fill-opacity="1" stroke="none" stroke-opacity="1" stroke-width="0.1" stroke-linecap="round" stroke-linejoin="round"/>
<path id="path_28ecf7a2e5b46e0100d6f7ad1ece3713" d="M 157.6206 122.6468 L 151.1595 150.1061 L 144.2403 151.6094 L 140.0501 144.6948 L 137.8881 153.0324 L 131.6045 154.5925 L 118.9915 129.1715 L 127.6754 126.4669 L 130.8202 132.8727 L 134.2594 139.0197 L 139.0637 131.5482 L 145.2331 137.5314 L 147.8842 122.6585 L 157.6206 122.6468 L 157.6206 122.6468 Z" fill-rule="evenodd" fill="#D084FF" fill-opacity="1" stroke="none" stroke-opacity="1" stroke-width="0.1" stroke-linecap="round" stroke-linejoin="round"/>
<path id="path_097179c3d2736e7af04ec3a51f69f010" d="M 173.9017 116.5378 L 191.2249 139.612 L 180.3795 143.8433 L 178.0541 137.4437 L 168.9661 139.1845 L 168.4484 146.6638 L 157.203 147.0815 L 166.6233 118.8981 L 173.9017 116.5378 L 173.9017 116.5378 Z M 170.4755 127.4845 L 169.7756 131.6147 L 175.4988 130.5235 L 173.3641 126.9737 L 170.4755 127.4845 L 170.4755 127.4845 Z" fill-rule="evenodd" fill="#D084FF" fill-opacity="1" stroke="none" stroke-opacity="1" stroke-width="0.1" stroke-linecap="round" stroke-linejoin="round"/>
<path id="path_404a0160c0a3b8247026c46602c6a513" d="M 200.3958 110.8197 L 207.9207 113.8978 L 210.8335 124.7944 L 205.6018 132.6304 L 197.4939 134.9374 L 198.6333 140.1818 L 189.9656 142.065 L 185.3297 114.093 L 200.3958 110.8197 L 200.3958 110.8197 Z M 195.9885 120.6577 L 196.7061 125.2156 L 199.2341 125.0169 L 201.5587 120.6552 L 195.9885 120.6577 L 195.9885 120.6577 Z" fill-rule="evenodd" fill="#D084FF" fill-opacity="1" stroke="none" stroke-opacity="1" stroke-width="0.1" stroke-linecap="round" stroke-linejoin="round"/>
</defs>
<g>
<use xlink:href="#path_d26a8e8f6c8c6c20a5432bb4a2421844"/>
</g>
<g>
<g>
<g>
<use xlink:href="#path_67d4977deb6d0a383646bc036ffce39c"/>
</g>
<g>
<use xlink:href="#path_3e3a7a84135ea106673aff73c16d9e9d"/>
</g>
<g>
<use xlink:href="#path_57f8c2a69336f098a7413e91c10d185a"/>
</g>
</g>
<g>
<g>
<use xlink:href="#path_42708feb1939656e75ceb2be73394dbe"/>
</g>
<g>
<use xlink:href="#path_28ecf7a2e5b46e0100d6f7ad1ece3713"/>
</g>
<g>
<use xlink:href="#path_097179c3d2736e7af04ec3a51f69f010"/>
</g>
<g>
<use xlink:href="#path_404a0160c0a3b8247026c46602c6a513"/>
</g>
</g>
</g>
</svg>